<svg xmlns="http://www.w3.org/2000/svg" width="149.392" height="29" viewBox="0 0 149.392 29">
  <g id="logo" transform="translate(-123 -64)">
    <g id="Эллипс_10" data-name="Эллипс 10" transform="translate(123 64)" fill="#083a39" stroke="#22b5b3" stroke-width="2">
      <circle cx="14.5" cy="14.5" r="14.5" stroke="none"/>
      <circle cx="14.5" cy="14.5" r="13.5" fill="none"/>
    </g>
    <path id="Контур_25" data-name="Контур 25" d="M-38.88,0-38.9-10.08l-4.944,8.3H-45.6l-4.92-8.088V0h-3.648V-16.8h3.216l6.288,10.44,6.192-10.44h3.192L-35.232,0Zm20.016-6.408q0,.072-.072,1.008H-28.7a3.042,3.042,0,0,0,1.248,1.9,4.134,4.134,0,0,0,2.448.7,4.957,4.957,0,0,0,1.788-.3,4.331,4.331,0,0,0,1.452-.948l1.992,2.16A6.7,6.7,0,0,1-25.1.192,8.428,8.428,0,0,1-28.968-.66,6.246,6.246,0,0,1-31.56-3.024a6.514,6.514,0,0,1-.912-3.432,6.6,6.6,0,0,1,.9-3.42A6.305,6.305,0,0,1-29.1-12.252a7.258,7.258,0,0,1,3.516-.852,7.2,7.2,0,0,1,3.432.816,5.956,5.956,0,0,1,2.412,2.34A6.978,6.978,0,0,1-18.864-6.408Zm-6.7-3.864a3.224,3.224,0,0,0-2.136.72,3.065,3.065,0,0,0-1.056,1.968h6.36A3.1,3.1,0,0,0-23.448-9.54,3.156,3.156,0,0,0-25.56-10.272Zm22.344-7.536V0H-6.792V-1.488A4.937,4.937,0,0,1-10.824.192a6.7,6.7,0,0,1-3.3-.816A5.843,5.843,0,0,1-16.44-2.952a7.1,7.1,0,0,1-.84-3.5,7.1,7.1,0,0,1,.84-3.5,5.843,5.843,0,0,1,2.316-2.328,6.7,6.7,0,0,1,3.3-.816,4.911,4.911,0,0,1,3.864,1.56v-6.264ZM-10.176-2.88a3.129,3.129,0,0,0,2.352-.972,3.6,3.6,0,0,0,.936-2.6,3.6,3.6,0,0,0-.936-2.6,3.129,3.129,0,0,0-2.352-.972,3.157,3.157,0,0,0-2.376.972,3.6,3.6,0,0,0-.936,2.6,3.6,3.6,0,0,0,.936,2.6A3.157,3.157,0,0,0-10.176-2.88ZM.24-12.912H3.984V0H.24Zm1.872-1.8a2.375,2.375,0,0,1-1.68-.6A1.946,1.946,0,0,1-.216-16.8a1.946,1.946,0,0,1,.648-1.488,2.375,2.375,0,0,1,1.68-.6,2.434,2.434,0,0,1,1.68.576,1.847,1.847,0,0,1,.648,1.44,2.038,2.038,0,0,1-.648,1.548A2.347,2.347,0,0,1,2.112-14.712ZM15.792-.624a3.848,3.848,0,0,1-1.356.612,6.856,6.856,0,0,1-1.692.2A5.027,5.027,0,0,1,9.18-.984,4.5,4.5,0,0,1,7.92-4.44v-5.3H5.928v-2.88H7.92v-3.144h3.744v3.144H14.88v2.88H11.664v5.256a1.763,1.763,0,0,0,.42,1.26,1.557,1.557,0,0,0,1.188.444,2.406,2.406,0,0,0,1.512-.48Zm7.32-12.48a6.72,6.72,0,0,1,4.608,1.428,5.465,5.465,0,0,1,1.608,4.308V0h-3.5V-1.608q-1.056,1.8-3.936,1.8a6.109,6.109,0,0,1-2.58-.5A3.847,3.847,0,0,1,17.64-1.7a3.623,3.623,0,0,1-.576-2.016A3.364,3.364,0,0,1,18.42-6.552a6.91,6.91,0,0,1,4.188-1.032h2.976a2.386,2.386,0,0,0-.744-1.884,3.277,3.277,0,0,0-2.232-.66A6.517,6.517,0,0,0,20.58-9.8a5.365,5.365,0,0,0-1.692.876l-1.344-2.616A8.109,8.109,0,0,1,20.076-12.7,11.342,11.342,0,0,1,23.112-13.1ZM22.824-2.328a3.261,3.261,0,0,0,1.7-.444A2.43,2.43,0,0,0,25.584-4.08V-5.4H23.016q-2.3,0-2.3,1.512a1.346,1.346,0,0,0,.564,1.14A2.541,2.541,0,0,0,22.824-2.328ZM41.04-.624a3.848,3.848,0,0,1-1.356.612,6.856,6.856,0,0,1-1.692.2A5.027,5.027,0,0,1,34.428-.984a4.5,4.5,0,0,1-1.26-3.456v-5.3H31.176v-2.88h1.992v-3.144h3.744v3.144h3.216v2.88H36.912v5.256a1.763,1.763,0,0,0,.42,1.26,1.557,1.557,0,0,0,1.188.444,2.406,2.406,0,0,0,1.512-.48ZM55.392-6.408q0,.072-.072,1.008H45.552A3.042,3.042,0,0,0,46.8-3.5a4.134,4.134,0,0,0,2.448.7,4.957,4.957,0,0,0,1.788-.3,4.331,4.331,0,0,0,1.452-.948L54.48-1.9A6.7,6.7,0,0,1,49.152.192,8.428,8.428,0,0,1,45.288-.66,6.246,6.246,0,0,1,42.7-3.024a6.514,6.514,0,0,1-.912-3.432,6.6,6.6,0,0,1,.9-3.42,6.305,6.305,0,0,1,2.472-2.376,7.258,7.258,0,0,1,3.516-.852,7.2,7.2,0,0,1,3.432.816,5.956,5.956,0,0,1,2.412,2.34A6.978,6.978,0,0,1,55.392-6.408Zm-6.7-3.864a3.224,3.224,0,0,0-2.136.72A3.065,3.065,0,0,0,45.5-7.584h6.36A3.1,3.1,0,0,0,50.808-9.54,3.156,3.156,0,0,0,48.7-10.272Z" transform="translate(217 87)" fill="#fff"/>
    <circle id="Эллипс_11" data-name="Эллипс 11" cx="6.5" cy="6.5" r="6.5" transform="translate(131 72)" fill="#22b5b3"/>
  </g>
</svg>
