<svg xmlns="http://www.w3.org/2000/svg" width="24" height="24" viewBox="0 0 24 24">
  <path id="Контур_6" data-name="Контур 6" d="M6.954,26.07h-1a3.512,3.512,0,0,1-2.708-1.178,3.393,3.393,0,0,1-.733-2.852,4.654,4.654,0,0,1,4.5-3.693H9.521V5.674a2.946,2.946,0,0,1,2.79-2.89l10.957-.708a3.067,3.067,0,0,1,2.239.775,2.866,2.866,0,0,1,.947,2.115l-.01,13.871a3.591,3.591,0,0,1-.053.645,4.655,4.655,0,0,1-4.5,3.692h-1A3.512,3.512,0,0,1,18.191,22a3.393,3.393,0,0,1-.733-2.852,4.654,4.654,0,0,1,4.5-3.693h2.508V10.758a.941.941,0,0,0-.316-.706,1,1,0,0,0-.746-.258L12.443,10.5a.983.983,0,0,0-.93.963v10.26a.969.969,0,0,1-.033.248,2.57,2.57,0,0,1-.029.4,4.659,4.659,0,0,1-4.5,3.692Zm.058-5.792a2.7,2.7,0,0,0-2.535,2.1,1.5,1.5,0,0,0,.3,1.275,1.528,1.528,0,0,0,1.182.487h1a2.7,2.7,0,0,0,2.535-2.1s.011-.283.02-1.763h-2.5Zm14.942-2.9a2.7,2.7,0,0,0-2.535,2.1,1.5,1.5,0,0,0,.3,1.275,1.528,1.528,0,0,0,1.182.487h1a2.7,2.7,0,0,0,2.535-2.1,1.745,1.745,0,0,0,.021-.319l.007-1.444H21.953ZM12.441,4.71a.983.983,0,0,0-.93.963V8.736a3.059,3.059,0,0,1,.8-.16l10.957-.708a3.16,3.16,0,0,1,1.194.16V4.965a.941.941,0,0,0-.316-.706A1,1,0,0,0,23.4,4Z" transform="translate(-2.455 -2.07)" fill="#22b5b3"/>
</svg>
